<?xml version="1.0" encoding="utf-8"?>
<!DOCTYPE score-partwise  PUBLIC "-//Recordare//DTD MusicXML 3.1 Partwise//EN" "http://www.musicxml.org/dtds/partwise.dtd">
<score-partwise version="3.1">
  <work>
    <work-title>Part A^ Nice</work-title>
  </work>
  <movement-title>Part A^ Nice</movement-title>
  <identification>
    <creator type="composer">Data</creator>
    <encoding>
      <encoding-date>2022-02-19</encoding-date>
      <software>music21 v.7.1.0</software>
    </encoding>
  </identification>
  <defaults>
    <scaling>
      <millimeters>7</millimeters>
      <tenths>40</tenths>
    </scaling>
  </defaults>
  <part-list>
    <score-part id="P037bb2e5b5593f51b3e647b8359949b1">
      <part-name />
    </score-part>
  </part-list>
  <!--=========================== Part 1 ===========================-->
  <part id="P037bb2e5b5593f51b3e647b8359949b1">
    <!--========================= Measure 1 ==========================-->
    <measure number="1">
      <attributes>
        <divisions>10080</divisions>
        <time>
          <beats>4</beats>
          <beat-type>4</beat-type>
        </time>
        <clef>
          <sign>G</sign>
          <line>2</line>
        </clef>
      </attributes>
      <note>
        <pitch>
          <step>F</step>
          <octave>3</octave>
        </pitch>
        <duration>17640</duration>
        <instrument id="I2bc9a8d557ad363f72b92816ca071151" />
        <type>quarter</type>
        <dot />
        <dot />
      </note>
      <note>
        <pitch>
          <step>C</step>
          <alter>1.5</alter>
          <octave>4</octave>
        </pitch>
        <duration>1260</duration>
        <instrument id="I2bc9a8d557ad363f72b92816ca071151" />
        <type>32nd</type>
        <accidental>three-quarters-sharp</accidental>
      </note>
      <note>
        <pitch>
          <step>C</step>
          <alter>0.5</alter>
          <octave>4</octave>
        </pitch>
        <duration>20160</duration>
        <tie type="start" />
        <instrument id="I2bc9a8d557ad363f72b92816ca071151" />
        <type>half</type>
        <accidental>quarter-sharp</accidental>
        <notations>
          <tied type="start" />
        </notations>
      </note>
      <note>
        <pitch>
          <step>C</step>
          <alter>0.5</alter>
          <octave>4</octave>
        </pitch>
        <duration>1260</duration>
        <tie type="stop" />
        <tie type="start" />
        <instrument id="I2bc9a8d557ad363f72b92816ca071151" />
        <type>32nd</type>
        <notations>
          <tied type="stop" />
          <tied type="start" />
        </notations>
      </note>
    </measure>
    <!--========================= Measure 2 ==========================-->
    <measure number="2">
      <note>
        <pitch>
          <step>C</step>
          <alter>0.5</alter>
          <octave>4</octave>
        </pitch>
        <duration>5040</duration>
        <tie type="stop" />
        <tie type="start" />
        <instrument id="I2bc9a8d557ad363f72b92816ca071151" />
        <type>eighth</type>
        <notations>
          <tied type="stop" />
          <tied type="start" />
        </notations>
      </note>
      <note>
        <pitch>
          <step>C</step>
          <alter>0.5</alter>
          <octave>4</octave>
        </pitch>
        <duration>1260</duration>
        <tie type="stop" />
        <instrument id="I2bc9a8d557ad363f72b92816ca071151" />
        <type>32nd</type>
        <notations>
          <tied type="stop" />
        </notations>
      </note>
      <note>
        <pitch>
          <step>C</step>
          <alter>0.5</alter>
          <octave>4</octave>
        </pitch>
        <duration>17640</duration>
        <instrument id="I2bc9a8d557ad363f72b92816ca071151" />
        <type>quarter</type>
        <dot />
        <dot />
        <accidental>quarter-sharp</accidental>
      </note>
      <note>
        <pitch>
          <step>F</step>
          <octave>3</octave>
        </pitch>
        <duration>10080</duration>
        <tie type="start" />
        <instrument id="I2bc9a8d557ad363f72b92816ca071151" />
        <type>quarter</type>
        <notations>
          <tied type="start" />
        </notations>
      </note>
      <note>
        <pitch>
          <step>F</step>
          <octave>3</octave>
        </pitch>
        <duration>5040</duration>
        <tie type="stop" />
        <tie type="start" />
        <instrument id="I2bc9a8d557ad363f72b92816ca071151" />
        <type>eighth</type>
        <notations>
          <tied type="stop" />
          <tied type="start" />
        </notations>
      </note>
      <note>
        <pitch>
          <step>F</step>
          <octave>3</octave>
        </pitch>
        <duration>1260</duration>
        <tie type="stop" />
        <tie type="start" />
        <instrument id="I2bc9a8d557ad363f72b92816ca071151" />
        <type>32nd</type>
        <notations>
          <tied type="stop" />
          <tied type="start" />
        </notations>
      </note>
    </measure>
    <!--========================= Measure 3 ==========================-->
    <measure number="3">
      <note>
        <pitch>
          <step>F</step>
          <octave>3</octave>
        </pitch>
        <duration>40320</duration>
        <tie type="stop" />
        <tie type="start" />
        <instrument id="I2bc9a8d557ad363f72b92816ca071151" />
        <type>whole</type>
        <notations>
          <tied type="stop" />
          <tied type="start" />
        </notations>
      </note>
    </measure>
    <!--========================= Measure 4 ==========================-->
    <measure number="4">
      <note>
        <pitch>
          <step>F</step>
          <octave>3</octave>
        </pitch>
        <duration>20160</duration>
        <tie type="stop" />
        <tie type="start" />
        <instrument id="I2bc9a8d557ad363f72b92816ca071151" />
        <type>half</type>
        <notations>
          <tied type="stop" />
          <tied type="start" />
        </notations>
      </note>
      <note>
        <pitch>
          <step>F</step>
          <octave>3</octave>
        </pitch>
        <duration>5040</duration>
        <tie type="stop" />
        <tie type="start" />
        <instrument id="I2bc9a8d557ad363f72b92816ca071151" />
        <type>eighth</type>
        <notations>
          <tied type="stop" />
          <tied type="start" />
        </notations>
      </note>
      <note>
        <pitch>
          <step>F</step>
          <octave>3</octave>
        </pitch>
        <duration>1260</duration>
        <tie type="stop" />
        <instrument id="I2bc9a8d557ad363f72b92816ca071151" />
        <type>32nd</type>
        <notations>
          <tied type="stop" />
        </notations>
      </note>
      <note>
        <rest />
        <duration>10080</duration>
        <type>quarter</type>
      </note>
      <note>
        <pitch>
          <step>C</step>
          <alter>0.5</alter>
          <octave>4</octave>
        </pitch>
        <duration>3780</duration>
        <tie type="start" />
        <instrument id="I2bc9a8d557ad363f72b92816ca071151" />
        <type>16th</type>
        <dot />
        <accidental>quarter-sharp</accidental>
        <notations>
          <tied type="start" />
        </notations>
      </note>
    </measure>
    <!--========================= Measure 5 ==========================-->
    <measure number="5">
      <note>
        <pitch>
          <step>C</step>
          <alter>0.5</alter>
          <octave>4</octave>
        </pitch>
        <duration>10080</duration>
        <tie type="stop" />
        <tie type="start" />
        <instrument id="I2bc9a8d557ad363f72b92816ca071151" />
        <type>quarter</type>
        <notations>
          <tied type="stop" />
          <tied type="start" />
        </notations>
      </note>
      <note>
        <pitch>
          <step>C</step>
          <alter>0.5</alter>
          <octave>4</octave>
        </pitch>
        <duration>3780</duration>
        <tie type="stop" />
        <instrument id="I2bc9a8d557ad363f72b92816ca071151" />
        <type>16th</type>
        <dot />
        <notations>
          <tied type="stop" />
        </notations>
      </note>
      <note>
        <pitch>
          <step>C</step>
          <alter>0.5</alter>
          <octave>4</octave>
        </pitch>
        <duration>1260</duration>
        <instrument id="I2bc9a8d557ad363f72b92816ca071151" />
        <type>32nd</type>
        <accidental>quarter-sharp</accidental>
        <stem>up</stem>
        <beam number="1">begin</beam>
        <beam number="2">begin</beam>
        <beam number="3">forward hook</beam>
      </note>
      <note>
        <pitch>
          <step>C</step>
          <alter>1.5</alter>
          <octave>4</octave>
        </pitch>
        <duration>1260</duration>
        <instrument id="I2bc9a8d557ad363f72b92816ca071151" />
        <type>32nd</type>
        <accidental>three-quarters-sharp</accidental>
        <stem>up</stem>
        <beam number="1">continue</beam>
        <beam number="2">continue</beam>
        <beam number="3">forward hook</beam>
      </note>
      <note>
        <pitch>
          <step>C</step>
          <alter>1.5</alter>
          <octave>4</octave>
        </pitch>
        <duration>2520</duration>
        <instrument id="I2bc9a8d557ad363f72b92816ca071151" />
        <type>16th</type>
        <stem>up</stem>
        <beam number="1">continue</beam>
        <beam number="2">continue</beam>
      </note>
      <note>
        <pitch>
          <step>C</step>
          <alter>0.5</alter>
          <octave>4</octave>
        </pitch>
        <duration>2520</duration>
        <instrument id="I2bc9a8d557ad363f72b92816ca071151" />
        <type>16th</type>
        <accidental>quarter-sharp</accidental>
        <stem>up</stem>
        <beam number="1">end</beam>
        <beam number="2">end</beam>
      </note>
      <note>
        <pitch>
          <step>F</step>
          <alter>0.5</alter>
          <octave>3</octave>
        </pitch>
        <duration>1260</duration>
        <instrument id="I2bc9a8d557ad363f72b92816ca071151" />
        <type>32nd</type>
        <accidental>quarter-sharp</accidental>
      </note>
      <note>
        <pitch>
          <step>G</step>
          <alter>0.5</alter>
          <octave>3</octave>
        </pitch>
        <duration>17640</duration>
        <tie type="start" />
        <instrument id="I2bc9a8d557ad363f72b92816ca071151" />
        <type>quarter</type>
        <dot />
        <dot />
        <accidental>quarter-sharp</accidental>
        <notations>
          <tied type="start" />
        </notations>
      </note>
    </measure>
    <!--========================= Measure 6 ==========================-->
    <measure number="6">
      <attributes>
        <time>
          <beats>4</beats>
          <beat-type>4</beat-type>
        </time>
        <clef>
          <sign>G</sign>
          <line>2</line>
        </clef>
      </attributes>
      <note>
        <pitch>
          <step>E</step>
          <alter>-0.5</alter>
          <octave>4</octave>
        </pitch>
        <duration>10080</duration>
        <tie type="stop" />
        <tie type="start" />
        <instrument id="I2bc9a8d557ad363f72b92816ca071151" />
        <type>quarter</type>
        <accidental>quarter-flat</accidental>
        <notations>
          <tied type="stop" />
          <tied type="start" />
        </notations>
      </note>
      <note>
        <pitch>
          <step>E</step>
          <alter>-0.5</alter>
          <octave>4</octave>
        </pitch>
        <duration>1260</duration>
        <tie type="stop" />
        <instrument id="I2bc9a8d557ad363f72b92816ca071151" />
        <type>32nd</type>
        <notations>
          <tied type="stop" />
        </notations>
      </note>
      <note>
        <pitch>
          <step>A</step>
          <alter>0.5</alter>
          <octave>4</octave>
        </pitch>
        <duration>20160</duration>
        <tie type="start" />
        <instrument id="I2bc9a8d557ad363f72b92816ca071151" />
        <type>half</type>
        <accidental>quarter-sharp</accidental>
        <notations>
          <tied type="start" />
        </notations>
      </note>
      <note>
        <pitch>
          <step>A</step>
          <alter>0.5</alter>
          <octave>4</octave>
        </pitch>
        <duration>8820</duration>
        <tie type="stop" />
        <tie type="start" />
        <instrument id="I2bc9a8d557ad363f72b92816ca071151" />
        <type>eighth</type>
        <dot />
        <dot />
        <notations>
          <tied type="stop" />
          <tied type="start" />
        </notations>
      </note>
    </measure>
    <!--========================= Measure 7 ==========================-->
    <measure number="7">
      <note>
        <pitch>
          <step>A</step>
          <alter>0.5</alter>
          <octave>4</octave>
        </pitch>
        <duration>1260</duration>
        <tie type="stop" />
        <instrument id="I2bc9a8d557ad363f72b92816ca071151" />
        <type>32nd</type>
        <stem>up</stem>
        <beam number="1">begin</beam>
        <beam number="2">begin</beam>
        <beam number="3">begin</beam>
        <notations>
          <tied type="stop" />
        </notations>
      </note>
      <note>
        <pitch>
          <step>C</step>
          <alter>1.5</alter>
          <octave>4</octave>
        </pitch>
        <duration>1260</duration>
        <instrument id="I2bc9a8d557ad363f72b92816ca071151" />
        <type>32nd</type>
        <accidental>three-quarters-sharp</accidental>
        <stem>up</stem>
        <beam number="1">continue</beam>
        <beam number="2">continue</beam>
        <beam number="3">continue</beam>
      </note>
      <note>
        <pitch>
          <step>A</step>
          <alter>0.5</alter>
          <octave>4</octave>
        </pitch>
        <duration>1260</duration>
        <instrument id="I2bc9a8d557ad363f72b92816ca071151" />
        <type>32nd</type>
        <accidental>quarter-sharp</accidental>
        <stem>up</stem>
        <beam number="1">continue</beam>
        <beam number="2">continue</beam>
        <beam number="3">end</beam>
      </note>
      <note>
        <pitch>
          <step>C</step>
          <alter>1.5</alter>
          <octave>4</octave>
        </pitch>
        <duration>2520</duration>
        <instrument id="I2bc9a8d557ad363f72b92816ca071151" />
        <type>16th</type>
        <accidental>three-quarters-sharp</accidental>
        <stem>up</stem>
        <beam number="1">end</beam>
        <beam number="2">end</beam>
      </note>
      <note>
        <pitch>
          <step>C</step>
          <alter>1</alter>
          <octave>4</octave>
        </pitch>
        <duration>17640</duration>
        <instrument id="I2bc9a8d557ad363f72b92816ca071151" />
        <type>quarter</type>
        <dot />
        <dot />
        <accidental>sharp</accidental>
      </note>
      <note>
        <pitch>
          <step>A</step>
          <alter>0.5</alter>
          <octave>4</octave>
        </pitch>
        <duration>1260</duration>
        <instrument id="I2bc9a8d557ad363f72b92816ca071151" />
        <type>32nd</type>
        <accidental>quarter-sharp</accidental>
      </note>
      <note>
        <pitch>
          <step>G</step>
          <alter>1.5</alter>
          <octave>4</octave>
        </pitch>
        <duration>15120</duration>
        <tie type="start" />
        <instrument id="I2bc9a8d557ad363f72b92816ca071151" />
        <type>quarter</type>
        <dot />
        <accidental>three-quarters-sharp</accidental>
        <notations>
          <tied type="start" />
        </notations>
      </note>
    </measure>
    <!--========================= Measure 8 ==========================-->
    <measure number="8">
      <note>
        <pitch>
          <step>G</step>
          <alter>1.5</alter>
          <octave>4</octave>
        </pitch>
        <duration>10080</duration>
        <tie type="stop" />
        <tie type="start" />
        <instrument id="I2bc9a8d557ad363f72b92816ca071151" />
        <type>quarter</type>
        <notations>
          <tied type="stop" />
          <tied type="start" />
        </notations>
      </note>
      <note>
        <pitch>
          <step>G</step>
          <alter>1.5</alter>
          <octave>4</octave>
        </pitch>
        <duration>2520</duration>
        <tie type="stop" />
        <instrument id="I2bc9a8d557ad363f72b92816ca071151" />
        <type>16th</type>
        <notations>
          <tied type="stop" />
        </notations>
      </note>
      <note>
        <pitch>
          <step>G</step>
          <alter>1.5</alter>
          <octave>4</octave>
        </pitch>
        <duration>17640</duration>
        <instrument id="I2bc9a8d557ad363f72b92816ca071151" />
        <type>quarter</type>
        <dot />
        <dot />
        <accidental>three-quarters-sharp</accidental>
      </note>
      <note>
        <pitch>
          <step>C</step>
          <alter>1</alter>
          <octave>4</octave>
        </pitch>
        <duration>10080</duration>
        <tie type="start" />
        <instrument id="I2bc9a8d557ad363f72b92816ca071151" />
        <type>quarter</type>
        <accidental>sharp</accidental>
        <notations>
          <tied type="start" />
        </notations>
      </note>
    </measure>
    <!--========================= Measure 9 ==========================-->
    <measure number="9">
      <attributes>
        <time>
          <beats>4</beats>
          <beat-type>4</beat-type>
        </time>
        <clef>
          <sign>G</sign>
          <line>2</line>
        </clef>
      </attributes>
      <note>
        <pitch>
          <step>A</step>
          <alter>0.5</alter>
          <octave>4</octave>
        </pitch>
        <duration>3780</duration>
        <tie type="stop" />
        <instrument id="I2bc9a8d557ad363f72b92816ca071151" />
        <type>16th</type>
        <dot />
        <accidental>quarter-sharp</accidental>
        <notations>
          <tied type="stop" />
        </notations>
      </note>
      <note>
        <pitch>
          <step>A</step>
          <alter>0.5</alter>
          <octave>4</octave>
        </pitch>
        <duration>17640</duration>
        <instrument id="I2bc9a8d557ad363f72b92816ca071151" />
        <type>quarter</type>
        <dot />
        <dot />
      </note>
      <note>
        <pitch>
          <step>D</step>
          <octave>4</octave>
        </pitch>
        <duration>18900</duration>
        <tie type="start" />
        <instrument id="I2bc9a8d557ad363f72b92816ca071151" />
        <type>quarter</type>
        <dot />
        <dot />
        <dot />
        <notations>
          <tied type="start" />
        </notations>
      </note>
    </measure>
    <!--========================= Measure 10 =========================-->
    <measure number="10">
      <note>
        <pitch>
          <step>D</step>
          <octave>4</octave>
        </pitch>
        <duration>40320</duration>
        <tie type="stop" />
        <tie type="start" />
        <instrument id="I2bc9a8d557ad363f72b92816ca071151" />
        <type>whole</type>
        <notations>
          <tied type="stop" />
          <tied type="start" />
        </notations>
      </note>
    </measure>
    <!--========================= Measure 11 =========================-->
    <measure number="11">
      <note>
        <pitch>
          <step>D</step>
          <octave>4</octave>
        </pitch>
        <duration>20160</duration>
        <tie type="stop" />
        <tie type="start" />
        <instrument id="I2bc9a8d557ad363f72b92816ca071151" />
        <type>half</type>
        <notations>
          <tied type="stop" />
          <tied type="start" />
        </notations>
      </note>
      <note>
        <pitch>
          <step>D</step>
          <octave>4</octave>
        </pitch>
        <duration>3780</duration>
        <tie type="stop" />
        <instrument id="I2bc9a8d557ad363f72b92816ca071151" />
        <type>16th</type>
        <dot />
        <notations>
          <tied type="stop" />
        </notations>
      </note>
      <note>
        <pitch>
          <step>A</step>
          <alter>0.5</alter>
          <octave>4</octave>
        </pitch>
        <duration>10080</duration>
        <tie type="start" />
        <instrument id="I2bc9a8d557ad363f72b92816ca071151" />
        <type>quarter</type>
        <accidental>quarter-sharp</accidental>
        <notations>
          <tied type="start" />
        </notations>
      </note>
      <note>
        <pitch>
          <step>A</step>
          <alter>0.5</alter>
          <octave>4</octave>
        </pitch>
        <duration>5040</duration>
        <tie type="stop" />
        <tie type="start" />
        <instrument id="I2bc9a8d557ad363f72b92816ca071151" />
        <type>eighth</type>
        <notations>
          <tied type="stop" />
          <tied type="start" />
        </notations>
      </note>
      <note>
        <pitch>
          <step>A</step>
          <alter>0.5</alter>
          <octave>4</octave>
        </pitch>
        <duration>1260</duration>
        <tie type="stop" />
        <tie type="start" />
        <instrument id="I2bc9a8d557ad363f72b92816ca071151" />
        <type>32nd</type>
        <notations>
          <tied type="stop" />
          <tied type="start" />
        </notations>
      </note>
    </measure>
    <!--========================= Measure 12 =========================-->
    <measure number="12">
      <note>
        <pitch>
          <step>A</step>
          <alter>0.5</alter>
          <octave>4</octave>
        </pitch>
        <duration>1260</duration>
        <tie type="stop" />
        <instrument id="I2bc9a8d557ad363f72b92816ca071151" />
        <type>32nd</type>
        <stem>up</stem>
        <beam number="1">begin</beam>
        <beam number="2">begin</beam>
        <beam number="3">begin</beam>
        <notations>
          <tied type="stop" />
        </notations>
      </note>
      <note>
        <pitch>
          <step>A</step>
          <alter>0.5</alter>
          <octave>4</octave>
        </pitch>
        <duration>1260</duration>
        <instrument id="I2bc9a8d557ad363f72b92816ca071151" />
        <type>32nd</type>
        <accidental>quarter-sharp</accidental>
        <stem>up</stem>
        <beam number="1">continue</beam>
        <beam number="2">continue</beam>
        <beam number="3">continue</beam>
      </note>
      <note>
        <pitch>
          <step>B</step>
          <alter>-0.5</alter>
          <octave>4</octave>
        </pitch>
        <duration>1260</duration>
        <instrument id="I2bc9a8d557ad363f72b92816ca071151" />
        <type>32nd</type>
        <accidental>quarter-flat</accidental>
        <stem>up</stem>
        <beam number="1">continue</beam>
        <beam number="2">continue</beam>
        <beam number="3">end</beam>
      </note>
      <note>
        <pitch>
          <step>B</step>
          <alter>-0.5</alter>
          <octave>4</octave>
        </pitch>
        <duration>2520</duration>
        <instrument id="I2bc9a8d557ad363f72b92816ca071151" />
        <type>16th</type>
        <stem>up</stem>
        <beam number="1">continue</beam>
        <beam number="2">end</beam>
      </note>
      <note>
        <pitch>
          <step>A</step>
          <alter>0.5</alter>
          <octave>4</octave>
        </pitch>
        <duration>2520</duration>
        <instrument id="I2bc9a8d557ad363f72b92816ca071151" />
        <type>16th</type>
        <accidental>quarter-sharp</accidental>
        <stem>up</stem>
        <beam number="1">continue</beam>
        <beam number="2">begin</beam>
      </note>
      <note>
        <pitch>
          <step>D</step>
          <alter>0.5</alter>
          <octave>4</octave>
        </pitch>
        <duration>1260</duration>
        <instrument id="I2bc9a8d557ad363f72b92816ca071151" />
        <type>32nd</type>
        <accidental>quarter-sharp</accidental>
        <stem>up</stem>
        <beam number="1">end</beam>
        <beam number="2">end</beam>
        <beam number="3">backward hook</beam>
      </note>
      <note>
        <pitch>
          <step>E</step>
          <alter>0.5</alter>
          <octave>4</octave>
        </pitch>
        <duration>20160</duration>
        <tie type="start" />
        <instrument id="I2bc9a8d557ad363f72b92816ca071151" />
        <type>half</type>
        <accidental>quarter-sharp</accidental>
        <notations>
          <tied type="start" />
        </notations>
      </note>
      <note>
        <pitch>
          <step>E</step>
          <alter>0.5</alter>
          <octave>4</octave>
        </pitch>
        <duration>8820</duration>
        <tie type="stop" />
        <instrument id="I2bc9a8d557ad363f72b92816ca071151" />
        <type>eighth</type>
        <dot />
        <dot />
        <notations>
          <tied type="stop" />
        </notations>
      </note>
      <note>
        <pitch>
          <step>B</step>
          <alter>-0.5</alter>
          <octave>4</octave>
        </pitch>
        <duration>1260</duration>
        <tie type="start" />
        <instrument id="I2bc9a8d557ad363f72b92816ca071151" />
        <type>32nd</type>
        <accidental>quarter-flat</accidental>
        <notations>
          <tied type="start" />
        </notations>
      </note>
    </measure>
    <!--========================= Measure 13 =========================-->
    <measure number="13">
      <note>
        <pitch>
          <step>B</step>
          <alter>-0.5</alter>
          <octave>4</octave>
        </pitch>
        <duration>20160</duration>
        <tie type="stop" />
        <tie type="start" />
        <instrument id="I2bc9a8d557ad363f72b92816ca071151" />
        <type>half</type>
        <notations>
          <tied type="stop" />
          <tied type="start" />
        </notations>
      </note>
      <note>
        <pitch>
          <step>B</step>
          <alter>-0.5</alter>
          <octave>4</octave>
        </pitch>
        <duration>8820</duration>
        <tie type="stop" />
        <instrument id="I2bc9a8d557ad363f72b92816ca071151" />
        <type>eighth</type>
        <dot />
        <dot />
        <notations>
          <tied type="stop" />
        </notations>
      </note>
      <note>
        <pitch>
          <step>D</step>
          <alter>0.5</alter>
          <octave>4</octave>
        </pitch>
        <duration>1260</duration>
        <instrument id="I2bc9a8d557ad363f72b92816ca071151" />
        <type>32nd</type>
        <accidental>quarter-sharp</accidental>
      </note>
      <note>
        <pitch>
          <step>B</step>
          <alter>-0.5</alter>
          <octave>4</octave>
        </pitch>
        <duration>1260</duration>
        <instrument id="I2bc9a8d557ad363f72b92816ca071151" />
        <type>32nd</type>
        <accidental>quarter-flat</accidental>
        <stem>up</stem>
        <beam number="1">begin</beam>
        <beam number="2">begin</beam>
        <beam number="3">forward hook</beam>
      </note>
      <note>
        <pitch>
          <step>D</step>
          <alter>0.5</alter>
          <octave>4</octave>
        </pitch>
        <duration>2520</duration>
        <instrument id="I2bc9a8d557ad363f72b92816ca071151" />
        <type>16th</type>
        <accidental>quarter-sharp</accidental>
        <stem>up</stem>
        <beam number="1">end</beam>
        <beam number="2">end</beam>
      </note>
      <note>
        <pitch>
          <step>G</step>
          <alter>1.5</alter>
          <octave>4</octave>
        </pitch>
        <duration>5040</duration>
        <tie type="start" />
        <instrument id="I2bc9a8d557ad363f72b92816ca071151" />
        <type>eighth</type>
        <accidental>three-quarters-sharp</accidental>
        <notations>
          <tied type="start" />
        </notations>
      </note>
      <note>
        <pitch>
          <step>G</step>
          <alter>1.5</alter>
          <octave>4</octave>
        </pitch>
        <duration>1260</duration>
        <tie type="stop" />
        <tie type="start" />
        <instrument id="I2bc9a8d557ad363f72b92816ca071151" />
        <type>32nd</type>
        <notations>
          <tied type="stop" />
          <tied type="start" />
        </notations>
      </note>
    </measure>
    <!--========================= Measure 14 =========================-->
    <measure number="14">
      <note>
        <pitch>
          <step>G</step>
          <alter>1.5</alter>
          <octave>4</octave>
        </pitch>
        <duration>20160</duration>
        <tie type="stop" />
        <tie type="start" />
        <instrument id="I2bc9a8d557ad363f72b92816ca071151" />
        <type>half</type>
        <notations>
          <tied type="stop" />
          <tied type="start" />
        </notations>
      </note>
      <note>
        <pitch>
          <step>G</step>
          <alter>1.5</alter>
          <octave>4</octave>
        </pitch>
        <duration>2520</duration>
        <tie type="stop" />
        <instrument id="I2bc9a8d557ad363f72b92816ca071151" />
        <type>16th</type>
        <notations>
          <tied type="stop" />
        </notations>
      </note>
      <note>
        <pitch>
          <step>F</step>
          <alter>1.5</alter>
          <octave>4</octave>
        </pitch>
        <duration>1260</duration>
        <instrument id="I2bc9a8d557ad363f72b92816ca071151" />
        <type>32nd</type>
        <accidental>three-quarters-sharp</accidental>
      </note>
      <note>
        <pitch>
          <step>C</step>
          <alter>1</alter>
          <octave>5</octave>
        </pitch>
        <duration>10080</duration>
        <instrument id="I2bc9a8d557ad363f72b92816ca071151" />
        <type>quarter</type>
        <accidental>sharp</accidental>
      </note>
      <note>
        <pitch>
          <step>E</step>
          <alter>-1</alter>
          <octave>4</octave>
        </pitch>
        <duration>2520</duration>
        <instrument id="I2bc9a8d557ad363f72b92816ca071151" />
        <type>16th</type>
        <accidental>flat</accidental>
        <stem>up</stem>
        <beam number="1">begin</beam>
        <beam number="2">begin</beam>
      </note>
      <note>
        <pitch>
          <step>C</step>
          <alter>1</alter>
          <octave>5</octave>
        </pitch>
        <duration>1260</duration>
        <instrument id="I2bc9a8d557ad363f72b92816ca071151" />
        <type>32nd</type>
        <accidental>sharp</accidental>
        <stem>up</stem>
        <beam number="1">continue</beam>
        <beam number="2">continue</beam>
        <beam number="3">forward hook</beam>
      </note>
      <note>
        <pitch>
          <step>G</step>
          <alter>1.5</alter>
          <octave>4</octave>
        </pitch>
        <duration>2520</duration>
        <instrument id="I2bc9a8d557ad363f72b92816ca071151" />
        <type>16th</type>
        <accidental>three-quarters-sharp</accidental>
        <stem>up</stem>
        <beam number="1">end</beam>
        <beam number="2">end</beam>
      </note>
    </measure>
    <!--========================= Measure 15 =========================-->
    <measure number="15">
      <note>
        <rest measure="yes" />
        <duration>40320</duration>
      </note>
    </measure>
    <!--========================= Measure 16 =========================-->
    <measure number="16">
      <attributes>
        <time>
          <beats>4</beats>
          <beat-type>4</beat-type>
        </time>
        <clef>
          <sign>G</sign>
          <line>2</line>
        </clef>
      </attributes>
      <note>
        <pitch>
          <step>C</step>
          <alter>0.5</alter>
          <octave>5</octave>
        </pitch>
        <duration>15120</duration>
        <tie type="stop" />
        <instrument id="I2bc9a8d557ad363f72b92816ca071151" />
        <type>quarter</type>
        <dot />
        <accidental>quarter-sharp</accidental>
        <notations>
          <tied type="stop" />
        </notations>
      </note>
      <note>
        <pitch>
          <step>A</step>
          <octave>5</octave>
        </pitch>
        <duration>1260</duration>
        <instrument id="I2bc9a8d557ad363f72b92816ca071151" />
        <type>32nd</type>
      </note>
      <note>
        <pitch>
          <step>G</step>
          <alter>1</alter>
          <octave>5</octave>
        </pitch>
        <duration>20160</duration>
        <tie type="start" />
        <instrument id="I2bc9a8d557ad363f72b92816ca071151" />
        <type>half</type>
        <accidental>sharp</accidental>
        <notations>
          <tied type="start" />
        </notations>
      </note>
      <note>
        <pitch>
          <step>G</step>
          <alter>1</alter>
          <octave>5</octave>
        </pitch>
        <duration>3780</duration>
        <tie type="stop" />
        <tie type="start" />
        <instrument id="I2bc9a8d557ad363f72b92816ca071151" />
        <type>16th</type>
        <dot />
        <notations>
          <tied type="stop" />
          <tied type="start" />
        </notations>
      </note>
    </measure>
    <!--========================= Measure 17 =========================-->
    <measure number="17">
      <note>
        <pitch>
          <step>G</step>
          <alter>1</alter>
          <octave>5</octave>
        </pitch>
        <duration>3780</duration>
        <tie type="stop" />
        <instrument id="I2bc9a8d557ad363f72b92816ca071151" />
        <type>16th</type>
        <dot />
        <notations>
          <tied type="stop" />
        </notations>
      </note>
      <note>
        <pitch>
          <step>G</step>
          <alter>1</alter>
          <octave>5</octave>
        </pitch>
        <duration>17640</duration>
        <instrument id="I2bc9a8d557ad363f72b92816ca071151" />
        <type>quarter</type>
        <dot />
        <dot />
        <accidental>sharp</accidental>
      </note>
      <note>
        <pitch>
          <step>C</step>
          <alter>0.5</alter>
          <octave>5</octave>
        </pitch>
        <duration>18900</duration>
        <tie type="start" />
        <instrument id="I2bc9a8d557ad363f72b92816ca071151" />
        <type>quarter</type>
        <dot />
        <dot />
        <dot />
        <accidental>quarter-sharp</accidental>
        <notations>
          <tied type="start" />
        </notations>
      </note>
    </measure>
    <!--========================= Measure 18 =========================-->
    <measure number="18">
      <note>
        <pitch>
          <step>C</step>
          <alter>0.5</alter>
          <octave>5</octave>
        </pitch>
        <duration>40320</duration>
        <tie type="stop" />
        <tie type="start" />
        <instrument id="I2bc9a8d557ad363f72b92816ca071151" />
        <type>whole</type>
        <notations>
          <tied type="stop" />
          <tied type="start" />
        </notations>
      </note>
    </measure>
    <!--========================= Measure 19 =========================-->
    <measure number="19">
      <note>
        <rest measure="yes" />
        <duration>40320</duration>
      </note>
    </measure>
    <!--========================= Measure 20 =========================-->
    <measure number="20">
      <note>
        <rest />
        <duration>20160</duration>
        <type>half</type>
      </note>
      <barline location="right">
        <bar-style>light-heavy</bar-style>
      </barline>
    </measure>
  </part>
</score-partwise>